<?xml version="1.0" encoding="UTF-8"?>
<svg id="c" data-name="Layer 15" xmlns="http://www.w3.org/2000/svg" viewBox="0 0 563.74 952.21">
  <polyline points="548.24 664.23 548.24 701.81 515.62 701.81" fill="none" stroke="#bc5858" stroke-linecap="round" stroke-linejoin="round" stroke-width="15"/>
  <polyline points="515.62 442.81 548.24 442.81 548.24 482.47" fill="none" stroke="#bc5858" stroke-linecap="round" stroke-linejoin="round" stroke-width="15"/>
  <polyline points="235.41 701.81 199.24 701.81 199.24 665.5" fill="none" stroke="#bc5858" stroke-linecap="round" stroke-linejoin="round" stroke-width="15"/>
  <polyline points="199.24 482.47 199.24 442.81 239.83 442.81" fill="none" stroke="#bc5858" stroke-linecap="round" stroke-linejoin="round" stroke-width="15"/>
  <polyline points="548.24 664.23 548.24 701.81 515.62 701.81" fill="none" stroke="#fff" stroke-linecap="round" stroke-linejoin="round" stroke-width="20"/>
  <polyline points="515.62 442.81 548.24 442.81 548.24 482.47" fill="none" stroke="#fff" stroke-linecap="round" stroke-linejoin="round" stroke-width="20"/>
  <polyline points="235.41 701.81 199.24 701.81 199.24 665.5" fill="none" stroke="#fff" stroke-linecap="round" stroke-linejoin="round" stroke-width="20"/>
  <polyline points="199.24 482.47 199.24 442.81 239.83 442.81" fill="none" stroke="#fff" stroke-linecap="round" stroke-linejoin="round" stroke-width="20"/>
  <g>
    <path d="M342.63,623.38l-6.84-17.97h-58.2l-6.84,18.36c-2.67,7.16-4.95,12-6.84,14.5-1.89,2.51-4.98,3.76-9.28,3.76-3.65,0-6.87-1.33-9.67-4-2.8-2.67-4.2-5.7-4.2-9.08,0-1.95.33-3.97.98-6.05.65-2.08,1.72-4.98,3.22-8.69l36.62-92.97c1.04-2.67,2.29-5.88,3.76-9.62,1.46-3.74,3.03-6.85,4.69-9.33,1.66-2.47,3.84-4.48,6.54-6.01,2.7-1.53,6.04-2.29,10.01-2.29s7.41.77,10.11,2.29c2.7,1.53,4.88,3.5,6.54,5.91,1.66,2.41,3.06,5,4.2,7.76,1.14,2.77,2.59,6.46,4.35,11.08l37.4,92.38c2.93,7.03,4.39,12.14,4.39,15.33s-1.38,6.36-4.15,9.13c-2.77,2.77-6.1,4.15-10.01,4.15-2.28,0-4.23-.41-5.86-1.22-1.63-.81-3-1.92-4.1-3.32-1.11-1.4-2.29-3.55-3.56-6.45-1.27-2.9-2.36-5.45-3.27-7.67ZM285.21,583.64h42.77l-21.58-59.08-21.19,59.08Z" fill="#fff" stroke="#fff"/>
    <path d="M433.85,578.36h-10.16v46c0,6.05-1.33,10.51-4,13.38-2.67,2.86-6.15,4.3-10.45,4.3-4.62,0-8.2-1.5-10.74-4.49s-3.81-7.39-3.81-13.18v-110.16c0-6.25,1.4-10.77,4.2-13.57s7.32-4.2,13.57-4.2h47.17c6.51,0,12.08.28,16.7.83,4.62.55,8.79,1.68,12.5,3.37,4.49,1.89,8.46,4.59,11.91,8.11,3.45,3.52,6.07,7.6,7.86,12.26,1.79,4.66,2.69,9.59,2.69,14.79,0,10.68-3.01,19.21-9.03,25.59-6.02,6.38-15.15,10.91-27.39,13.57,5.14,2.73,10.06,6.77,14.75,12.11,4.69,5.34,8.87,11.02,12.55,17.04,3.68,6.02,6.54,11.46,8.59,16.31,2.05,4.85,3.08,8.19,3.08,10.01s-.6,3.76-1.81,5.62c-1.21,1.86-2.85,3.32-4.93,4.39-2.08,1.07-4.49,1.61-7.23,1.61-3.26,0-5.99-.77-8.2-2.29-2.21-1.53-4.12-3.47-5.71-5.81-1.6-2.34-3.76-5.79-6.49-10.35l-11.62-19.34c-4.17-7.1-7.89-12.5-11.18-16.21-3.29-3.71-6.62-6.25-10.01-7.62-3.39-1.37-7.65-2.05-12.79-2.05ZM450.45,518.21h-26.76v39.36h25.98c6.97,0,12.83-.6,17.58-1.81,4.75-1.2,8.38-3.25,10.89-6.15,2.51-2.9,3.76-6.88,3.76-11.96,0-3.97-1.01-7.47-3.03-10.5-2.02-3.03-4.82-5.29-8.4-6.79-3.39-1.43-10.06-2.15-20.02-2.15Z" fill="#fff" stroke="#fff"/>
  </g>
</svg>