<?xml version="1.0" encoding="UTF-8"?>
<svg id="a" data-name="Layer 1" xmlns="http://www.w3.org/2000/svg" viewBox="0 0 357.84 408.37">
  <path d="M352.67,259.07c-7.15-14.31-20.66-20.76-28.64-34.96-8.24-14.66-31.95-69.37-41.86-77.28-8.71-6.95-55.38-9.48-74.06-10.23-38.02-1.52-100.16,4.49-100.16,4.49,0,0-28.07.95-32.95,6.26-15.94,17.37-27.82,58.19-39.81,75.96-7.67,11.37-28.96,28.12-33.63,43.36-4.09,13.33,4.86,47.81,4.86,66.79,0,22.06-5.4,62.24,3.59,71.24,3.27,3.27,38.18,4.2,41.56.04,5.21-6.42,4.3-32.76,4.3-32.76,0,0,73.86,3.91,134.36,3.91,28.5,0,111.9-4.74,111.9-4.74,0,0-2.37,28.57,4.16,33.49,5.88,4.43,41.11,5.3,44.9-3.64,3.37-7.95,2.98-30.59,1.66-51.68-3-48.04,11.6-66.66-.19-90.24ZM89.03,163.64c6.88-5.89,67.39-9.1,90.32-9.31,22.01-.2,81.82,3.88,89.07,9.01,7.6,5.38,24.02,46.71,24.02,46.71,0,0-85.13-3.66-113.52-3.54-28.44.11-113.66,4.46-113.66,4.46,0,0,15.83-40.53,23.76-47.32ZM47.32,296.44c-11.74,0-21.25-8.95-21.25-20s9.51-20,21.25-20,21.25,8.95,21.25,20-9.51,20-21.25,20ZM176.74,314.95c-41.98,0-70.23-35.61-70.23-35.61l145.89-2.28s-24.34,39.59-75.65,37.89ZM310.82,297.06c-11.74,0-21.25-8.95-21.25-20s9.51-20,21.25-20,21.25,8.95,21.25,20-9.51,20-21.25,20Z" style="fill: #fff; stroke: #fff; stroke-miterlimit: 10;"/>
  <path d="M317.98,40.16s-16.22,2.6-34.99-6.98C267.67,25.36,248.75.84,248.75.84c0,0-22.51,31.74-41.96,39.81-10.18,4.22-29.64,4.37-29.64,4.37,0,0-11.04,41.94,8.51,94.76,7.05,19.04,40.05,54.35,60.36,54.35,29.62,0,53.64-35.87,63.48-55.7,22.81-45.98,8.48-98.26,8.48-98.26ZM298.51,80.58c-30.24,18.13-66.8,59.48-66.8,59.48,0,0-9.82-9.99-21.67-20.18-6.35-5.46-7.18-11.16-4.66-13.49,2.71-2.51,6.01-2.54,9.12-1.08,4.47,2.1,15.9,14.51,15.9,14.51,0,0,37.19-44.72,61.39-52.68,3.27-1.08,8.58-2.15,11.17,1.64,2.84,4.16.65,8.74-4.46,11.8Z" style="fill: #fff; stroke: #fff; stroke-miterlimit: 10;"/>
</svg>