<?xml version="1.0" encoding="UTF-8"?>
<svg id="a" data-name="Layer 1" xmlns="http://www.w3.org/2000/svg" viewBox="0 0 474.61 405.48">
  <path d="M415.11,0C396.6,0,381.61,14.76,381.61,32.96s29.06,52.04,33.5,52.04c4.87,0,33.5-33.84,33.5-52.04S433.61,0,415.11,0ZM415.11,47.28c-7.03,0-12.73-5.61-12.73-12.52s5.7-12.52,12.73-12.52,12.73,5.61,12.73,12.52-5.7,12.52-12.73,12.52Z" fill="#fff" stroke-width="0"/>
  <path d="M352.67,256.18c-7.15-14.31-20.66-20.76-28.64-34.96-8.24-14.66-31.95-69.37-41.86-77.28-8.71-6.95-55.38-9.48-74.06-10.23-38.02-1.52-100.16,4.49-100.16,4.49,0,0-28.07.95-32.95,6.26-15.94,17.37-27.82,58.19-39.81,75.96-7.67,11.37-28.96,28.12-33.63,43.36-4.09,13.33,4.86,47.81,4.86,66.79,0,22.06-5.4,62.24,3.59,71.24,3.27,3.27,38.18,4.2,41.56.04,5.21-6.42,4.3-32.76,4.3-32.76,0,0,73.86,3.91,134.36,3.91,28.5,0,111.9-4.74,111.9-4.74,0,0-2.37,28.57,4.16,33.49,5.88,4.43,41.11,5.3,44.9-3.64,3.37-7.95,2.98-30.59,1.66-51.68-3-48.04,11.6-66.66-.19-90.24ZM89.03,160.74c6.88-5.89,67.39-9.1,90.32-9.31,22.01-.2,81.82,3.88,89.07,9.01,7.6,5.38,24.02,46.71,24.02,46.71,0,0-85.13-3.66-113.52-3.54-28.44.11-113.66,4.46-113.66,4.46,0,0,15.83-40.53,23.76-47.32ZM47.32,293.55c-11.74,0-21.25-8.95-21.25-20s9.51-20,21.25-20,21.25,8.95,21.25,20-9.51,20-21.25,20ZM176.74,312.06c-41.98,0-70.23-35.61-70.23-35.61l145.89-2.28s-24.34,39.59-75.65,37.89ZM310.82,294.17c-11.74,0-21.25-8.95-21.25-20s9.51-20,21.25-20,21.25,8.95,21.25,20-9.51,20-21.25,20Z" fill="#fff" stroke="#fff" stroke-miterlimit="10"/>
  <path d="M322.64,189.11c40.36-1.98,60.96-.41,94.91-.41,12.47,0,19.16.06,30.18-5.76,13.81-7.29,19.4-25.93,15.82-37.87-2.97-9.91-9.7-16.1-18.95-20.75-8.38-4.22-13.68-3.82-27.9-3.82-42.03,0-83.93,4.1-111.79-.39-5.42-.87-14.06-2.82-21.19-6.63-7.13-3.81-10.81-9.94-13.73-21.71-2.91-11.75-.64-16.72,9.33-31.44,4.21-6.21,28.4-8.47,44.5-8.47s34.18-.56,49.69.31" fill="none" stroke="#fff" stroke-dasharray="0 0 0 0 0 0 30 30 30 30 30 30" stroke-linecap="round" stroke-miterlimit="10" stroke-width="20"/>
</svg>