<?xml version="1.0" encoding="UTF-8"?>
<svg id="a" data-name="Layer 1" xmlns="http://www.w3.org/2000/svg" viewBox="0 0 390.44 388.16">
  <polygon points="343.95 5.12 290.61 92.78 322.66 94.03 308.89 164.4 363.48 71.99 331.18 71.49 343.95 5.12" fill="#fff" stroke="#fff" stroke-miterlimit="10"/>
  <g>
    <path d="M157.89,376.68C73.49,359.41,10,284.73,10,195.22,10,92.93,92.93,10,195.22,10c36.28,0,70.12,10.43,98.69,28.45" fill="none" stroke="#fff" stroke-linecap="round" stroke-miterlimit="10" stroke-width="20"/>
    <path d="M365.25,121.64c9.77,22.55,15.19,47.43,15.19,73.58,0,102.29-87.08,182.94-189.37,182.94" fill="none" stroke="#fff" stroke-linecap="round" stroke-miterlimit="10" stroke-width="20"/>
    <line x1="157.26" y1="173.31" x2="157.26" y2="106.95" fill="none" stroke="#fff" stroke-linecap="round" stroke-linejoin="round" stroke-width="15"/>
    <line x1="217.35" y1="171.59" x2="217.35" y2="105.22" fill="none" stroke="#fff" stroke-linecap="round" stroke-linejoin="round" stroke-width="15"/>
    <path d="M129.78,179.15c-2.74-11.1,114.9-8.35,114.9-8.35,0,0-2.44,72.45-3.33,96.59-.51,13.86-1.21,30.8-34.95,43.09-9.22,3.36-38.33,1.53-38.33,1.53,0,0-26.1-21.37-29.74-30.43-7.1-17.68-7.35-27-7.88-36.27-.6-10.49,0-42.05,0-42.05l-.67-24.12Z" fill="#fff" stroke="#fff" stroke-miterlimit="10"/>
    <path d="M188.22,378.16c0-19.28-1.32-64.72-1.32-64.72,0,0,12.39,3.26,33.18-10.05,16.2-10.37,25.09-19.48,25.09-39.38,0-57.41-.49-93.22-.49-93.22l-114.91,3.3s-1.49,73.83,3.28,97.83c2.74,13.77,8.66,21.7,22.34,31.14,10.65,7.35,31.26,11.21,31.26,11.21" fill="none" stroke="#fff" stroke-linecap="round" stroke-miterlimit="10" stroke-width="15"/>
  </g>
</svg>